<mxfile host="app.diagrams.net" modified="2024-04-25T06:38:47.709Z" agent="Mozilla/5.0 (Windows NT 10.0; Win64; x64; rv:123.0) Gecko/20100101 Firefox/123.0" etag="tCmUlVlIa5cWAhFKWmRa" version="24.1.0" type="github">
  <diagram name="第 1 页" id="2zwWI6rYxvFrpTjRpGLl">
    <mxGraphModel dx="3434" dy="2540" grid="1" gridSize="10" guides="1" tooltips="1" connect="1" arrows="1" fold="1" page="1" pageScale="1" pageWidth="827" pageHeight="1169" math="0" shadow="0">
      <root>
        <mxCell id="0" />
        <mxCell id="1" parent="0" />
        <mxCell id="w1NT4D3f_hbIPWU9u6wB-62" value="&lt;div style=&quot;font-size: 24px;&quot;&gt;业务系统&lt;br&gt;&lt;/div&gt;&lt;div style=&quot;font-size: 24px;&quot;&gt;&lt;br style=&quot;font-size: 24px;&quot;&gt;&lt;/div&gt;&lt;div style=&quot;font-size: 24px;&quot;&gt;&lt;br style=&quot;font-size: 24px;&quot;&gt;&lt;/div&gt;&lt;div style=&quot;font-size: 24px;&quot;&gt;&lt;br style=&quot;font-size: 24px;&quot;&gt;&lt;/div&gt;&lt;div style=&quot;font-size: 24px;&quot;&gt;&lt;br style=&quot;font-size: 24px;&quot;&gt;&lt;/div&gt;&lt;div style=&quot;font-size: 24px;&quot;&gt;&lt;br&gt;&lt;/div&gt;&lt;div style=&quot;font-size: 24px;&quot;&gt;&lt;br&gt;&lt;/div&gt;&lt;div style=&quot;font-size: 24px;&quot;&gt;&lt;br&gt;&lt;/div&gt;&lt;div style=&quot;font-size: 24px;&quot;&gt;&lt;br&gt;&lt;/div&gt;&lt;div style=&quot;font-size: 24px;&quot;&gt;&lt;br&gt;&lt;/div&gt;&lt;div style=&quot;font-size: 24px;&quot;&gt;&lt;br&gt;&lt;/div&gt;&lt;div style=&quot;font-size: 24px;&quot;&gt;&lt;br&gt;&lt;/div&gt;&lt;div style=&quot;font-size: 24px;&quot;&gt;&lt;br&gt;&lt;/div&gt;&lt;div style=&quot;font-size: 24px;&quot;&gt;&lt;br style=&quot;font-size: 24px;&quot;&gt;&lt;/div&gt;" style="rounded=0;whiteSpace=wrap;html=1;strokeWidth=2;fontSize=24;fontStyle=1" vertex="1" parent="1">
          <mxGeometry y="-70" width="1200" height="410" as="geometry" />
        </mxCell>
        <mxCell id="w1NT4D3f_hbIPWU9u6wB-49" value="下载文件" style="edgeStyle=orthogonalEdgeStyle;rounded=0;orthogonalLoop=1;jettySize=auto;html=1;exitX=0.75;exitY=0;exitDx=0;exitDy=0;fontSize=15;fontStyle=1;strokeWidth=2;" edge="1" parent="1" source="w1NT4D3f_hbIPWU9u6wB-44" target="w1NT4D3f_hbIPWU9u6wB-46">
          <mxGeometry relative="1" as="geometry" />
        </mxCell>
        <mxCell id="w1NT4D3f_hbIPWU9u6wB-44" value="&lt;div&gt;3RD System&lt;/div&gt;&lt;div&gt;&lt;br&gt;&lt;/div&gt;&lt;div&gt;&lt;br&gt;&lt;/div&gt;&lt;div&gt;&lt;br&gt;&lt;/div&gt;" style="rounded=0;whiteSpace=wrap;html=1;strokeWidth=2;fontSize=24;fontStyle=1" vertex="1" parent="1">
          <mxGeometry y="855" width="1200" height="140" as="geometry" />
        </mxCell>
        <mxCell id="w1NT4D3f_hbIPWU9u6wB-7" value="select/upsert" style="edgeStyle=orthogonalEdgeStyle;rounded=0;orthogonalLoop=1;jettySize=auto;html=1;exitX=0.5;exitY=1;exitDx=0;exitDy=0;fontSize=15;fontStyle=1;strokeWidth=2;" edge="1" parent="1" source="w1NT4D3f_hbIPWU9u6wB-2" target="w1NT4D3f_hbIPWU9u6wB-6">
          <mxGeometry relative="1" as="geometry" />
        </mxCell>
        <mxCell id="w1NT4D3f_hbIPWU9u6wB-2" value="OFA" style="rounded=1;whiteSpace=wrap;html=1;fontSize=18;fontStyle=1;strokeWidth=2;" vertex="1" parent="1">
          <mxGeometry x="12" y="60" width="200" height="60" as="geometry" />
        </mxCell>
        <mxCell id="w1NT4D3f_hbIPWU9u6wB-21" value="发布事件" style="edgeStyle=orthogonalEdgeStyle;rounded=0;orthogonalLoop=1;jettySize=auto;html=1;exitX=0.5;exitY=1;exitDx=0;exitDy=0;strokeWidth=2;fontSize=15;fontStyle=1" edge="1" parent="1" source="w1NT4D3f_hbIPWU9u6wB-3" target="w1NT4D3f_hbIPWU9u6wB-20">
          <mxGeometry relative="1" as="geometry" />
        </mxCell>
        <mxCell id="w1NT4D3f_hbIPWU9u6wB-26" value="发布事件" style="edgeStyle=orthogonalEdgeStyle;rounded=0;orthogonalLoop=1;jettySize=auto;html=1;exitX=0.5;exitY=0;exitDx=0;exitDy=0;fontSize=15;fontStyle=1;entryX=0.5;entryY=0;entryDx=0;entryDy=0;entryPerimeter=0;strokeWidth=2;" edge="1" parent="1" source="w1NT4D3f_hbIPWU9u6wB-3" target="w1NT4D3f_hbIPWU9u6wB-29">
          <mxGeometry relative="1" as="geometry" />
        </mxCell>
        <mxCell id="w1NT4D3f_hbIPWU9u6wB-3" value="SOM" style="rounded=1;whiteSpace=wrap;html=1;fontSize=18;fontStyle=1;strokeWidth=2;" vertex="1" parent="1">
          <mxGeometry x="664" y="61" width="200" height="60" as="geometry" />
        </mxCell>
        <mxCell id="w1NT4D3f_hbIPWU9u6wB-9" style="edgeStyle=orthogonalEdgeStyle;rounded=0;orthogonalLoop=1;jettySize=auto;html=1;exitX=0.25;exitY=1;exitDx=0;exitDy=0;strokeWidth=2;" edge="1" parent="1" source="w1NT4D3f_hbIPWU9u6wB-4" target="w1NT4D3f_hbIPWU9u6wB-8">
          <mxGeometry relative="1" as="geometry" />
        </mxCell>
        <mxCell id="w1NT4D3f_hbIPWU9u6wB-60" value="select/upsert" style="edgeLabel;html=1;align=center;verticalAlign=middle;resizable=0;points=[];fontSize=15;fontStyle=1" vertex="1" connectable="0" parent="w1NT4D3f_hbIPWU9u6wB-9">
          <mxGeometry x="0.0359" y="-1" relative="1" as="geometry">
            <mxPoint as="offset" />
          </mxGeometry>
        </mxCell>
        <mxCell id="w1NT4D3f_hbIPWU9u6wB-4" value="IM" style="rounded=1;whiteSpace=wrap;html=1;fontSize=18;fontStyle=1;strokeWidth=2;" vertex="1" parent="1">
          <mxGeometry x="338" y="61" width="200" height="60" as="geometry" />
        </mxCell>
        <mxCell id="w1NT4D3f_hbIPWU9u6wB-15" value="&lt;div&gt;入库通知/&lt;/div&gt;&lt;div&gt;出库通知/&lt;/div&gt;&lt;div&gt;单据取消等&lt;/div&gt;" style="edgeStyle=orthogonalEdgeStyle;rounded=0;orthogonalLoop=1;jettySize=auto;html=1;exitX=0.5;exitY=1;exitDx=0;exitDy=0;fontSize=15;strokeWidth=2;fontStyle=1;" edge="1" parent="1" source="w1NT4D3f_hbIPWU9u6wB-5">
          <mxGeometry x="-0.0022" relative="1" as="geometry">
            <mxPoint x="1091" y="260" as="targetPoint" />
            <mxPoint as="offset" />
          </mxGeometry>
        </mxCell>
        <mxCell id="w1NT4D3f_hbIPWU9u6wB-5" value="MM" style="rounded=1;whiteSpace=wrap;html=1;fontSize=18;fontStyle=1;strokeWidth=2;" vertex="1" parent="1">
          <mxGeometry x="990" y="60" width="200" height="60" as="geometry" />
        </mxCell>
        <mxCell id="w1NT4D3f_hbIPWU9u6wB-6" value="MongoDB" style="shape=cylinder3;whiteSpace=wrap;html=1;boundedLbl=1;backgroundOutline=1;size=15;strokeWidth=2;fontSize=18;fontStyle=1" vertex="1" parent="1">
          <mxGeometry x="62" y="260" width="100" height="60" as="geometry" />
        </mxCell>
        <mxCell id="w1NT4D3f_hbIPWU9u6wB-8" value="MySQL" style="shape=cylinder3;whiteSpace=wrap;html=1;boundedLbl=1;backgroundOutline=1;size=15;strokeWidth=2;fontSize=18;fontStyle=1" vertex="1" parent="1">
          <mxGeometry x="264" y="260" width="100" height="60" as="geometry" />
        </mxCell>
        <mxCell id="w1NT4D3f_hbIPWU9u6wB-11" value="&lt;div style=&quot;font-size: 15px;&quot;&gt;查询&lt;/div&gt;&lt;div style=&quot;font-size: 15px;&quot;&gt;销售数据&lt;/div&gt;" style="edgeStyle=orthogonalEdgeStyle;rounded=0;orthogonalLoop=1;jettySize=auto;html=1;exitX=0.093;exitY=0.014;exitDx=0;exitDy=0;exitPerimeter=0;strokeWidth=2;fontSize=15;fontStyle=1" edge="1" parent="1" source="w1NT4D3f_hbIPWU9u6wB-10" target="w1NT4D3f_hbIPWU9u6wB-6">
          <mxGeometry relative="1" as="geometry" />
        </mxCell>
        <mxCell id="w1NT4D3f_hbIPWU9u6wB-47" value="&lt;div&gt;api&lt;/div&gt;&lt;div&gt;call&lt;/div&gt;" style="edgeStyle=orthogonalEdgeStyle;rounded=0;orthogonalLoop=1;jettySize=auto;html=1;exitX=0.25;exitY=1;exitDx=0;exitDy=0;entryX=0.25;entryY=0;entryDx=0;entryDy=0;fontSize=15;fontStyle=1;strokeWidth=2;" edge="1" parent="1" source="w1NT4D3f_hbIPWU9u6wB-10" target="w1NT4D3f_hbIPWU9u6wB-44">
          <mxGeometry relative="1" as="geometry" />
        </mxCell>
        <mxCell id="w1NT4D3f_hbIPWU9u6wB-48" value="上传文件" style="edgeStyle=orthogonalEdgeStyle;rounded=0;orthogonalLoop=1;jettySize=auto;html=1;exitX=0.75;exitY=1;exitDx=0;exitDy=0;fontSize=15;fontStyle=1;strokeWidth=2;" edge="1" parent="1" source="w1NT4D3f_hbIPWU9u6wB-10" target="w1NT4D3f_hbIPWU9u6wB-46">
          <mxGeometry relative="1" as="geometry" />
        </mxCell>
        <mxCell id="w1NT4D3f_hbIPWU9u6wB-10" value="&lt;div style=&quot;font-size: 24px;&quot;&gt;SAS&lt;/div&gt;&lt;div style=&quot;font-size: 24px;&quot;&gt;&lt;br style=&quot;font-size: 24px;&quot;&gt;&lt;/div&gt;&lt;div style=&quot;font-size: 24px;&quot;&gt;&lt;br style=&quot;font-size: 24px;&quot;&gt;&lt;/div&gt;&lt;div style=&quot;font-size: 24px;&quot;&gt;&lt;br style=&quot;font-size: 24px;&quot;&gt;&lt;/div&gt;&lt;div style=&quot;font-size: 24px;&quot;&gt;&lt;br style=&quot;font-size: 24px;&quot;&gt;&lt;/div&gt;&lt;div style=&quot;font-size: 24px;&quot;&gt;&lt;br&gt;&lt;/div&gt;&lt;div style=&quot;font-size: 24px;&quot;&gt;&lt;br style=&quot;font-size: 24px;&quot;&gt;&lt;/div&gt;" style="rounded=0;whiteSpace=wrap;html=1;strokeWidth=2;fontSize=24;fontStyle=1" vertex="1" parent="1">
          <mxGeometry y="440" width="1200" height="210" as="geometry" />
        </mxCell>
        <mxCell id="w1NT4D3f_hbIPWU9u6wB-12" value="&lt;div&gt;查询&lt;/div&gt;&lt;div&gt;库存快照&lt;/div&gt;" style="edgeStyle=orthogonalEdgeStyle;rounded=0;orthogonalLoop=1;jettySize=auto;html=1;entryX=0.5;entryY=1;entryDx=0;entryDy=0;entryPerimeter=0;strokeWidth=2;fontSize=15;fontStyle=1" edge="1" parent="1" target="w1NT4D3f_hbIPWU9u6wB-8">
          <mxGeometry relative="1" as="geometry">
            <mxPoint x="313" y="441" as="sourcePoint" />
          </mxGeometry>
        </mxCell>
        <mxCell id="w1NT4D3f_hbIPWU9u6wB-14" value="HUB" style="rounded=1;whiteSpace=wrap;html=1;fontSize=18;fontStyle=1;strokeWidth=2;" vertex="1" parent="1">
          <mxGeometry x="470" y="260" width="720" height="60" as="geometry" />
        </mxCell>
        <mxCell id="w1NT4D3f_hbIPWU9u6wB-16" value="&lt;div&gt;分发&lt;/div&gt;&lt;div&gt;订单事件&amp;amp;&lt;/div&gt;&lt;div&gt;履约事件&lt;br&gt;&lt;/div&gt;" style="rounded=0;orthogonalLoop=1;jettySize=auto;html=1;exitX=0.528;exitY=1.013;exitDx=0;exitDy=0;entryX=1;entryY=0.5;entryDx=0;entryDy=0;entryPerimeter=0;strokeWidth=2;fontSize=15;fontStyle=1;exitPerimeter=0;" edge="1" parent="1" target="w1NT4D3f_hbIPWU9u6wB-37">
          <mxGeometry relative="1" as="geometry">
            <mxPoint x="846.1599999999999" y="320.78" as="sourcePoint" />
            <mxPoint x="850" y="440" as="targetPoint" />
          </mxGeometry>
        </mxCell>
        <mxCell id="w1NT4D3f_hbIPWU9u6wB-19" value="&lt;div&gt;分发&lt;/div&gt;&lt;div&gt;单据状态&lt;/div&gt;" style="edgeStyle=orthogonalEdgeStyle;rounded=0;orthogonalLoop=1;jettySize=auto;html=1;exitX=0.877;exitY=1;exitDx=0;exitDy=0;entryX=1;entryY=0.5;entryDx=0;entryDy=0;entryPerimeter=0;fontSize=15;fontStyle=1;strokeWidth=2;exitPerimeter=0;" edge="1" parent="1" source="w1NT4D3f_hbIPWU9u6wB-14" target="w1NT4D3f_hbIPWU9u6wB-38">
          <mxGeometry relative="1" as="geometry" />
        </mxCell>
        <mxCell id="w1NT4D3f_hbIPWU9u6wB-20" value="" style="shape=cylinder3;whiteSpace=wrap;html=1;boundedLbl=1;backgroundOutline=1;size=15;rotation=90;fontSize=18;strokeWidth=2;" vertex="1" parent="1">
          <mxGeometry x="741" y="126" width="40" height="120" as="geometry" />
        </mxCell>
        <mxCell id="w1NT4D3f_hbIPWU9u6wB-22" value="消费事件" style="edgeStyle=orthogonalEdgeStyle;rounded=0;orthogonalLoop=1;jettySize=auto;html=1;entryX=1;entryY=0.5;entryDx=0;entryDy=0;entryPerimeter=0;strokeWidth=2;dashed=1;fontSize=15;fontStyle=1" edge="1" parent="1" target="w1NT4D3f_hbIPWU9u6wB-20">
          <mxGeometry relative="1" as="geometry">
            <mxPoint x="761" y="260" as="sourcePoint" />
          </mxGeometry>
        </mxCell>
        <mxCell id="w1NT4D3f_hbIPWU9u6wB-25" value="RMQ" style="text;html=1;align=center;verticalAlign=middle;whiteSpace=wrap;rounded=0;fontSize=18;fontStyle=1" vertex="1" parent="1">
          <mxGeometry x="721" y="171" width="60" height="30" as="geometry" />
        </mxCell>
        <mxCell id="w1NT4D3f_hbIPWU9u6wB-27" value="" style="shape=cylinder3;whiteSpace=wrap;html=1;boundedLbl=1;backgroundOutline=1;size=15;rotation=90;fontSize=18;strokeWidth=2;" vertex="1" parent="1">
          <mxGeometry x="741" y="126" width="40" height="120" as="geometry" />
        </mxCell>
        <mxCell id="w1NT4D3f_hbIPWU9u6wB-28" value="RMQ" style="text;html=1;align=center;verticalAlign=middle;whiteSpace=wrap;rounded=0;fontSize=18;fontStyle=1" vertex="1" parent="1">
          <mxGeometry x="721" y="171" width="60" height="30" as="geometry" />
        </mxCell>
        <mxCell id="w1NT4D3f_hbIPWU9u6wB-29" value="" style="shape=cylinder3;whiteSpace=wrap;html=1;boundedLbl=1;backgroundOutline=1;size=15;rotation=90;fontSize=18;strokeWidth=2;" vertex="1" parent="1">
          <mxGeometry x="411" y="-59" width="40" height="120" as="geometry" />
        </mxCell>
        <mxCell id="w1NT4D3f_hbIPWU9u6wB-30" value="RMQ" style="text;html=1;align=center;verticalAlign=middle;whiteSpace=wrap;rounded=0;fontSize=18;fontStyle=1" vertex="1" parent="1">
          <mxGeometry x="391" y="-14" width="60" height="30" as="geometry" />
        </mxCell>
        <mxCell id="w1NT4D3f_hbIPWU9u6wB-31" value="消费事件" style="edgeStyle=orthogonalEdgeStyle;rounded=0;orthogonalLoop=1;jettySize=auto;html=1;exitX=0.5;exitY=0;exitDx=0;exitDy=0;entryX=0.5;entryY=1;entryDx=0;entryDy=0;entryPerimeter=0;fontSize=15;fontStyle=1;strokeWidth=2;dashed=1;" edge="1" parent="1" source="w1NT4D3f_hbIPWU9u6wB-2" target="w1NT4D3f_hbIPWU9u6wB-29">
          <mxGeometry relative="1" as="geometry">
            <mxPoint x="151" y="1" as="targetPoint" />
          </mxGeometry>
        </mxCell>
        <mxCell id="w1NT4D3f_hbIPWU9u6wB-35" value="" style="shape=providedRequiredInterface;html=1;verticalLabelPosition=bottom;sketch=0;rotation=90;strokeWidth=2;fontSize=15;fontStyle=1;direction=east;" vertex="1" parent="1">
          <mxGeometry x="578" y="299" width="20" height="20" as="geometry" />
        </mxCell>
        <mxCell id="w1NT4D3f_hbIPWU9u6wB-33" value="&lt;div style=&quot;font-size: 15px;&quot;&gt;查询&lt;/div&gt;&lt;div style=&quot;font-size: 15px;&quot;&gt;库存流水&lt;/div&gt;" style="edgeStyle=orthogonalEdgeStyle;rounded=0;orthogonalLoop=1;jettySize=auto;html=1;exitX=0;exitY=0.5;exitDx=0;exitDy=0;entryX=0.75;entryY=1;entryDx=0;entryDy=0;exitPerimeter=0;strokeWidth=2;fontSize=15;fontStyle=1" edge="1" parent="1" source="w1NT4D3f_hbIPWU9u6wB-35" target="w1NT4D3f_hbIPWU9u6wB-4">
          <mxGeometry x="0.0981" y="2" relative="1" as="geometry">
            <mxPoint as="offset" />
          </mxGeometry>
        </mxCell>
        <mxCell id="w1NT4D3f_hbIPWU9u6wB-36" value="&lt;div&gt;查询&lt;/div&gt;&lt;div&gt;库存流水&lt;br&gt;&lt;/div&gt;" style="edgeStyle=orthogonalEdgeStyle;rounded=0;orthogonalLoop=1;jettySize=auto;html=1;exitX=0.49;exitY=-0.001;exitDx=0;exitDy=0;entryX=1;entryY=0.5;entryDx=0;entryDy=0;entryPerimeter=0;exitPerimeter=0;strokeWidth=2;fontSize=15;fontStyle=1" edge="1" parent="1" source="w1NT4D3f_hbIPWU9u6wB-10" target="w1NT4D3f_hbIPWU9u6wB-35">
          <mxGeometry relative="1" as="geometry" />
        </mxCell>
        <mxCell id="w1NT4D3f_hbIPWU9u6wB-37" value="" style="shape=providedRequiredInterface;html=1;verticalLabelPosition=bottom;sketch=0;rotation=-90;strokeWidth=2;" vertex="1" parent="1">
          <mxGeometry x="836" y="440" width="20" height="20" as="geometry" />
        </mxCell>
        <mxCell id="w1NT4D3f_hbIPWU9u6wB-38" value="" style="shape=providedRequiredInterface;html=1;verticalLabelPosition=bottom;sketch=0;rotation=-90;strokeWidth=2;" vertex="1" parent="1">
          <mxGeometry x="1092" y="440" width="20" height="20" as="geometry" />
        </mxCell>
        <mxCell id="w1NT4D3f_hbIPWU9u6wB-39" value="品牌系统1" style="rounded=1;whiteSpace=wrap;html=1;strokeWidth=2;fontSize=18;fontStyle=1;flipH=0;" vertex="1" parent="1">
          <mxGeometry x="12" y="916" width="200" height="60" as="geometry" />
        </mxCell>
        <mxCell id="w1NT4D3f_hbIPWU9u6wB-40" value="品牌系统2" style="rounded=1;whiteSpace=wrap;html=1;strokeWidth=2;fontSize=18;fontStyle=1;flipH=0;" vertex="1" parent="1">
          <mxGeometry x="338" y="916" width="200" height="60" as="geometry" />
        </mxCell>
        <mxCell id="w1NT4D3f_hbIPWU9u6wB-41" value="..." style="rounded=1;whiteSpace=wrap;html=1;strokeWidth=2;fontSize=18;fontStyle=1;flipH=0;" vertex="1" parent="1">
          <mxGeometry x="664" y="916" width="200" height="60" as="geometry" />
        </mxCell>
        <mxCell id="w1NT4D3f_hbIPWU9u6wB-42" value="品牌系统_N" style="rounded=1;whiteSpace=wrap;html=1;strokeWidth=2;fontSize=18;fontStyle=1;flipH=0;" vertex="1" parent="1">
          <mxGeometry x="990" y="916" width="200" height="60" as="geometry" />
        </mxCell>
        <mxCell id="w1NT4D3f_hbIPWU9u6wB-46" value="" style="sketch=0;outlineConnect=0;fontColor=#232F3E;gradientColor=none;fillColor=#01A88D;strokeColor=none;dashed=0;verticalLabelPosition=bottom;verticalAlign=top;align=center;html=1;fontSize=12;fontStyle=0;aspect=fixed;shape=mxgraph.aws4.transfer_for_sftp_resource;" vertex="1" parent="1">
          <mxGeometry x="862" y="713" width="76" height="78" as="geometry" />
        </mxCell>
        <mxCell id="w1NT4D3f_hbIPWU9u6wB-50" value="Sales Adapter_1" style="rounded=1;whiteSpace=wrap;html=1;strokeWidth=2;fontSize=18;fontStyle=1;flipH=0;" vertex="1" parent="1">
          <mxGeometry x="12" y="481" width="200" height="60" as="geometry" />
        </mxCell>
        <mxCell id="w1NT4D3f_hbIPWU9u6wB-51" value="Sales Adapter_2" style="rounded=1;whiteSpace=wrap;html=1;strokeWidth=2;fontSize=18;fontStyle=1;flipH=0;" vertex="1" parent="1">
          <mxGeometry x="338" y="481" width="200" height="60" as="geometry" />
        </mxCell>
        <mxCell id="w1NT4D3f_hbIPWU9u6wB-52" value="..." style="rounded=1;whiteSpace=wrap;html=1;strokeWidth=2;fontSize=18;fontStyle=1;flipH=0;" vertex="1" parent="1">
          <mxGeometry x="664" y="481" width="200" height="60" as="geometry" />
        </mxCell>
        <mxCell id="w1NT4D3f_hbIPWU9u6wB-53" value="Sales Adapter_N" style="rounded=1;whiteSpace=wrap;html=1;strokeWidth=2;fontSize=18;fontStyle=1;flipH=0;" vertex="1" parent="1">
          <mxGeometry x="990" y="481" width="200" height="60" as="geometry" />
        </mxCell>
        <mxCell id="w1NT4D3f_hbIPWU9u6wB-55" value="MySQL" style="shape=cylinder3;whiteSpace=wrap;html=1;boundedLbl=1;backgroundOutline=1;size=15;strokeWidth=2;fontSize=18;fontStyle=1" vertex="1" parent="1">
          <mxGeometry x="552" y="585" width="100" height="60" as="geometry" />
        </mxCell>
        <mxCell id="w1NT4D3f_hbIPWU9u6wB-56" value="select&lt;div&gt;/upsert&lt;/div&gt;" style="edgeStyle=orthogonalEdgeStyle;rounded=0;orthogonalLoop=1;jettySize=auto;html=1;exitX=0.5;exitY=1;exitDx=0;exitDy=0;entryX=0;entryY=0.5;entryDx=0;entryDy=0;entryPerimeter=0;fontSize=15;fontStyle=1;strokeWidth=2;" edge="1" parent="1" source="w1NT4D3f_hbIPWU9u6wB-50" target="w1NT4D3f_hbIPWU9u6wB-55">
          <mxGeometry x="0.0094" y="7" relative="1" as="geometry">
            <mxPoint as="offset" />
          </mxGeometry>
        </mxCell>
        <mxCell id="w1NT4D3f_hbIPWU9u6wB-57" value="&lt;br&gt;&lt;div&gt;select&lt;/div&gt;&lt;div&gt;/upsert&lt;/div&gt;" style="edgeStyle=orthogonalEdgeStyle;rounded=0;orthogonalLoop=1;jettySize=auto;html=1;exitX=0.5;exitY=1;exitDx=0;exitDy=0;entryX=1;entryY=0.5;entryDx=0;entryDy=0;entryPerimeter=0;fontSize=15;fontStyle=1;strokeWidth=2;" edge="1" parent="1" source="w1NT4D3f_hbIPWU9u6wB-53" target="w1NT4D3f_hbIPWU9u6wB-55">
          <mxGeometry x="0.0148" y="-17" relative="1" as="geometry">
            <mxPoint as="offset" />
          </mxGeometry>
        </mxCell>
        <mxCell id="w1NT4D3f_hbIPWU9u6wB-58" value="select&lt;div&gt;/upsert&lt;/div&gt;" style="edgeStyle=orthogonalEdgeStyle;rounded=0;orthogonalLoop=1;jettySize=auto;html=1;exitX=0.5;exitY=1;exitDx=0;exitDy=0;entryX=0.855;entryY=0;entryDx=0;entryDy=4.35;entryPerimeter=0;fontSize=15;fontStyle=1;strokeWidth=2;" edge="1" parent="1" source="w1NT4D3f_hbIPWU9u6wB-52" target="w1NT4D3f_hbIPWU9u6wB-55">
          <mxGeometry x="-0.0578" relative="1" as="geometry">
            <mxPoint as="offset" />
          </mxGeometry>
        </mxCell>
        <mxCell id="w1NT4D3f_hbIPWU9u6wB-59" value="select&lt;div&gt;/upsert&lt;/div&gt;" style="edgeStyle=orthogonalEdgeStyle;rounded=0;orthogonalLoop=1;jettySize=auto;html=1;exitX=0.5;exitY=1;exitDx=0;exitDy=0;entryX=0.145;entryY=0;entryDx=0;entryDy=4.35;entryPerimeter=0;fontSize=15;fontStyle=1;strokeWidth=2;" edge="1" parent="1" source="w1NT4D3f_hbIPWU9u6wB-51" target="w1NT4D3f_hbIPWU9u6wB-55">
          <mxGeometry x="0.001" relative="1" as="geometry">
            <mxPoint as="offset" />
          </mxGeometry>
        </mxCell>
        <mxCell id="w1NT4D3f_hbIPWU9u6wB-63" value="" style="shape=providedRequiredInterface;html=1;verticalLabelPosition=bottom;sketch=0;rotation=-90;strokeWidth=2;fontSize=15;fontStyle=1" vertex="1" parent="1">
          <mxGeometry x="723" y="300" width="20" height="20" as="geometry" />
        </mxCell>
        <mxCell id="w1NT4D3f_hbIPWU9u6wB-17" value="&lt;div style=&quot;font-size: 15px;&quot;&gt;注册&lt;/div&gt;&lt;div style=&quot;font-size: 15px;&quot;&gt;路由&lt;br style=&quot;font-size: 15px;&quot;&gt;&lt;/div&gt;" style="edgeStyle=orthogonalEdgeStyle;rounded=0;orthogonalLoop=1;jettySize=auto;html=1;strokeWidth=2;fontSize=15;fontStyle=1;dashed=1;entryX=0;entryY=0.5;entryDx=0;entryDy=0;entryPerimeter=0;exitX=0.61;exitY=0.003;exitDx=0;exitDy=0;exitPerimeter=0;" edge="1" parent="1" source="w1NT4D3f_hbIPWU9u6wB-10" target="w1NT4D3f_hbIPWU9u6wB-63">
          <mxGeometry x="0.0009" relative="1" as="geometry">
            <mxPoint x="602" y="440.36" as="sourcePoint" />
            <mxPoint x="601.6679999999999" y="320.8" as="targetPoint" />
            <mxPoint as="offset" />
          </mxGeometry>
        </mxCell>
        <mxCell id="w1NT4D3f_hbIPWU9u6wB-64" value="" style="shape=providedRequiredInterface;html=1;verticalLabelPosition=bottom;sketch=0;rotation=-90;strokeWidth=2;fontSize=15;fontStyle=1" vertex="1" parent="1">
          <mxGeometry x="970" y="300" width="20" height="20" as="geometry" />
        </mxCell>
        <mxCell id="w1NT4D3f_hbIPWU9u6wB-18" value="&lt;div&gt;注册&lt;/div&gt;&lt;div&gt;路由&lt;br&gt;&lt;/div&gt;" style="edgeStyle=orthogonalEdgeStyle;rounded=0;orthogonalLoop=1;jettySize=auto;html=1;exitX=0.816;exitY=0.003;exitDx=0;exitDy=0;exitPerimeter=0;fontSize=15;fontStyle=1;strokeWidth=2;dashed=1;entryX=0;entryY=0.5;entryDx=0;entryDy=0;entryPerimeter=0;" edge="1" parent="1" source="w1NT4D3f_hbIPWU9u6wB-10" target="w1NT4D3f_hbIPWU9u6wB-64">
          <mxGeometry relative="1" as="geometry">
            <mxPoint x="876" y="340" as="targetPoint" />
          </mxGeometry>
        </mxCell>
        <mxCell id="w1NT4D3f_hbIPWU9u6wB-65" value="E21" style="text;html=1;align=center;verticalAlign=middle;whiteSpace=wrap;rounded=0;fontSize=15;fontStyle=1" vertex="1" parent="1">
          <mxGeometry x="596" y="300" width="30" height="16" as="geometry" />
        </mxCell>
        <mxCell id="w1NT4D3f_hbIPWU9u6wB-66" value="B05" style="text;html=1;align=center;verticalAlign=middle;whiteSpace=wrap;rounded=0;fontSize=15;fontStyle=1" vertex="1" parent="1">
          <mxGeometry x="743" y="302" width="30" height="16" as="geometry" />
        </mxCell>
        <mxCell id="w1NT4D3f_hbIPWU9u6wB-68" value="&lt;div&gt;E01\E03\E11&lt;br&gt;&lt;/div&gt;" style="text;html=1;align=center;verticalAlign=middle;whiteSpace=wrap;rounded=0;fontSize=15;fontStyle=1" vertex="1" parent="1">
          <mxGeometry x="1000" y="303" width="65" height="16" as="geometry" />
        </mxCell>
      </root>
    </mxGraphModel>
  </diagram>
</mxfile>
